<svg id="visual" viewBox="0 0 900 600" width="900" height="600" xmlns="http://www.w3.org/2000/svg" xmlns:xlink="http://www.w3.org/1999/xlink" version="1.1"><rect x="0" y="0" width="900" height="600" fill="#FFFFFF"></rect><defs><linearGradient id="grad1_0" x1="33.3%" y1="100%" x2="100%" y2="0%"><stop offset="20%" stop-color="#021466" stop-opacity="1"></stop><stop offset="80%" stop-color="#021466" stop-opacity="1"></stop></linearGradient></defs><defs><linearGradient id="grad1_1" x1="33.3%" y1="100%" x2="100%" y2="0%"><stop offset="20%" stop-color="#021466" stop-opacity="1"></stop><stop offset="80%" stop-color="#8b80b1" stop-opacity="1"></stop></linearGradient></defs><defs><linearGradient id="grad1_2" x1="33.3%" y1="100%" x2="100%" y2="0%"><stop offset="20%" stop-color="#ffffff" stop-opacity="1"></stop><stop offset="80%" stop-color="#8b80b1" stop-opacity="1"></stop></linearGradient></defs><defs><linearGradient id="grad2_0" x1="0%" y1="100%" x2="66.7%" y2="0%"><stop offset="20%" stop-color="#021466" stop-opacity="1"></stop><stop offset="80%" stop-color="#021466" stop-opacity="1"></stop></linearGradient></defs><defs><linearGradient id="grad2_1" x1="0%" y1="100%" x2="66.7%" y2="0%"><stop offset="20%" stop-color="#8b80b1" stop-opacity="1"></stop><stop offset="80%" stop-color="#021466" stop-opacity="1"></stop></linearGradient></defs><defs><linearGradient id="grad2_2" x1="0%" y1="100%" x2="66.7%" y2="0%"><stop offset="20%" stop-color="#8b80b1" stop-opacity="1"></stop><stop offset="80%" stop-color="#ffffff" stop-opacity="1"></stop></linearGradient></defs><g transform="translate(900, 600)"><path d="M-405.6 0C-385.2 -49.7 -364.8 -99.5 -340 -140.8C-315.2 -182.2 -286 -215.1 -256.7 -256.7C-227.4 -298.3 -198 -348.5 -155.2 -374.7C-112.4 -401 -56.2 -403.3 0 -405.6L0 0Z" fill="#c4bed8"></path><path d="M-270.4 0C-256.8 -33.2 -243.2 -66.3 -226.7 -93.9C-210.1 -121.4 -190.6 -143.4 -171.1 -171.1C-151.6 -198.8 -132 -232.3 -103.5 -249.8C-75 -267.3 -37.5 -268.9 0 -270.4L0 0Z" fill="#52478b"></path><path d="M-135.2 0C-128.4 -16.6 -121.6 -33.2 -113.3 -46.9C-105.1 -60.7 -95.3 -71.7 -85.6 -85.6C-75.8 -99.4 -66 -116.2 -51.7 -124.9C-37.5 -133.7 -18.7 -134.4 0 -135.2L0 0Z" fill="#021466"></path></g><g transform="translate(0, 0)"><path d="M405.6 0C401 53.7 396.4 107.4 374.7 155.2C353.1 203.1 314.3 245 271.5 271.5C228.8 298 182.1 309.1 136.2 328.9C90.3 348.7 45.2 377.2 0 405.6L0 0Z" fill="#c4bed8"></path><path d="M270.4 0C267.4 35.8 264.3 71.6 249.8 103.5C235.4 135.4 209.5 163.3 181 181C152.5 198.7 121.4 206.1 90.8 219.3C60.2 232.5 30.1 251.4 0 270.4L0 0Z" fill="#52478b"></path><path d="M135.2 0C133.7 17.9 132.1 35.8 124.9 51.7C117.7 67.7 104.8 81.7 90.5 90.5C76.3 99.3 60.7 103 45.4 109.6C30.1 116.2 15.1 125.7 0 135.2L0 0Z" fill="#021466"></path></g></svg>