<svg width="249" height="40" viewBox="0 0 249 40" fill="none" xmlns="http://www.w3.org/2000/svg">
<path d="M20.364 39.7141C9.11714 39.7141 0 30.5969 0 19.35V0C11.2465 0 20.364 9.11715 20.364 20.3637V39.7141Z" fill="white"/>
<path d="M22.1484 23.2499V12.9727C22.1484 5.80826 27.9564 0.000244141 35.121 0.000244141V10.2774C35.121 17.4419 29.313 23.2499 22.1484 23.2499Z" fill="white"/>
<path d="M51.4743 39.7139H36.5969C28.6172 39.7139 22.1484 33.2451 22.1484 25.2651H37.0255C45.0051 25.2651 51.4743 31.7343 51.4743 39.7139Z" fill="#424BD1"/>
<path d="M80.221 31.3599C85.4077 31.3599 89.4252 28.3018 90.2646 23.6847H86.2771C85.5576 26.1132 83.279 27.6722 80.3109 27.6722C76.2934 27.6722 73.7151 24.6741 73.7151 20.027C73.7151 15.3499 76.2635 12.4118 80.3109 12.4118C83.2191 12.4118 85.4077 13.9109 86.1572 16.4593H90.2047C89.4551 11.7522 85.5876 8.72407 80.4008 8.72407C73.9849 8.72407 69.6976 13.2513 69.6976 20.057C69.6976 26.9227 73.835 31.3599 80.221 31.3599ZM92.297 23.5648C92.297 28.1819 95.6249 31.3599 100.212 31.3599C104.799 31.3599 108.127 28.1819 108.127 23.5648C108.127 18.9477 104.799 15.7697 100.212 15.7697C95.6249 15.7697 92.297 18.9477 92.297 23.5648ZM95.9547 23.5648C95.9547 20.8665 97.6936 19.0376 100.212 19.0376C102.73 19.0376 104.469 20.8665 104.469 23.5648C104.469 26.2631 102.73 28.0919 100.212 28.0919C97.6936 28.0919 95.9547 26.2631 95.9547 23.5648ZM117.113 31.3899C119.361 31.3899 121.28 30.4005 122.179 28.6916L122.419 31.0001H125.777V8.69409H122.149V18.0782C121.22 16.6092 119.391 15.7397 117.322 15.7397C112.855 15.7397 110.157 19.0376 110.157 23.6547C110.157 28.2418 112.825 31.3899 117.113 31.3899ZM117.922 28.032C115.374 28.032 113.815 26.1731 113.815 23.5348C113.815 20.8965 115.374 19.0076 117.922 19.0076C120.47 19.0076 122.119 20.8665 122.119 23.5348C122.119 26.2031 120.47 28.032 117.922 28.032ZM136.215 31.3899C140.082 31.3899 142.781 29.4411 143.41 26.2031H140.022C139.603 27.6122 138.283 28.3917 136.275 28.3917C133.846 28.3917 132.467 27.0726 132.197 24.4642L143.35 24.4342V23.3249C143.35 18.7078 140.532 15.7397 136.095 15.7397C131.748 15.7397 128.719 18.9477 128.719 23.5948C128.719 28.1819 131.807 31.3899 136.215 31.3899ZM136.125 18.7378C138.313 18.7378 139.722 20.087 139.722 22.1257H132.287C132.647 19.9071 133.966 18.7378 136.125 18.7378ZM146.188 34.2081H158.93V31.5098H146.188V34.2081ZM166.992 31.0001V21.7059H176.706V31.0001H180.544V9.08384H176.706V18.1382H166.992V9.08384H163.155V31.0001H166.992ZM183.997 23.5648C183.997 28.1819 187.325 31.3599 191.912 31.3599C196.499 31.3599 199.827 28.1819 199.827 23.5648C199.827 18.9477 196.499 15.7697 191.912 15.7697C187.325 15.7697 183.997 18.9477 183.997 23.5648ZM187.655 23.5648C187.655 20.8665 189.394 19.0376 191.912 19.0376C194.431 19.0376 196.169 20.8665 196.169 23.5648C196.169 26.2631 194.431 28.0919 191.912 28.0919C189.394 28.0919 187.655 26.2631 187.655 23.5648ZM212.419 16.1894V23.9545C212.419 26.7728 211.309 28.1219 209.001 28.1219C206.962 28.1219 205.853 26.9826 205.853 24.1644V16.1894H202.195V25.4536C202.195 29.0813 204.204 31.3899 207.622 31.3899C209.601 31.3899 211.519 30.4305 212.419 29.0213L212.689 31.0001H216.076V16.1894H212.419ZM218.422 26.5029C218.422 29.4111 220.761 31.3899 224.448 31.3899C228.106 31.3899 230.655 29.531 230.655 26.5329C230.655 24.2543 229.395 23.1151 226.907 22.5454L224.239 21.9158C222.979 21.616 222.32 21.0763 222.32 20.2369C222.32 19.1276 223.159 18.468 224.598 18.468C226.007 18.468 226.847 19.2775 226.877 20.5367H230.355C230.325 17.6585 228.076 15.7397 224.748 15.7397C221.33 15.7397 218.872 17.4786 218.872 20.3868C218.872 22.7553 220.161 24.0145 222.829 24.6141L225.498 25.2437C226.817 25.5435 227.207 26.0832 227.207 26.8327C227.207 27.912 226.277 28.6016 224.568 28.6016C222.889 28.6016 221.93 27.7921 221.9 26.5029H218.422ZM240.065 31.3899C243.933 31.3899 246.631 29.4411 247.261 26.2031H243.873C243.453 27.6122 242.134 28.3917 240.125 28.3917C237.697 28.3917 236.318 27.0726 236.048 24.4642L247.201 24.4342V23.3249C247.201 18.7078 244.383 15.7397 239.945 15.7397C235.598 15.7397 232.57 18.9477 232.57 23.5948C232.57 28.1819 235.658 31.3899 240.065 31.3899ZM239.975 18.7378C242.164 18.7378 243.573 20.087 243.573 22.1257H236.138C236.498 19.9071 237.817 18.7378 239.975 18.7378Z" fill="white"/>
</svg>
